<svg class="logo-svg" viewBox="0 0 200 200" xmlns="http://www.w3.org/2000/svg">
                    <!-- 圆形背景 -->
                    <circle cx="100" cy="100" r="85" fill="url(#grad3)" stroke="none"/>
                    
                    <!-- 书法风格的YZ -->
                    <path d="M65 70 Q75 60 85 70 L95 95 Q100 100 105 95 L115 70 Q125 60 135 70 Q130 80 125 85 L110 105 L110 125 Q110 135 100 135 Q90 135 90 125 L90 105 L75 85 Q70 80 65 70 Z" fill="white"/>
                    
                    <path d="M70 155 L130 155 Q135 155 135 160 Q135 165 130 165 L85 165 L125 175 Q130 175 130 180 Q130 185 125 185 L70 185 Q65 185 65 180 Q65 175 70 175 L115 175 L75 165 Q70 165 70 160 Q70 155 70 155 Z" fill="white"/>
                    
                    <!-- 装饰笔触 -->
                    <path d="M40 45 Q60 35 75 50" stroke="white" stroke-width="4" fill="none" opacity="0.7" stroke-linecap="round"/>
                    <path d="M125 50 Q140 35 160 45" stroke="white" stroke-width="4" fill="none" opacity="0.7" stroke-linecap="round"/>
                    <path d="M45 155 Q65 145 80 155" stroke="white" stroke-width="4" fill="none" opacity="0.7" stroke-linecap="round"/>
                    
                    <defs>
                        <linearGradient id="grad3" x1="0%" y1="0%" x2="100%" y2="100%">
                            <stop offset="0%" style="stop-color:#f093fb"/>
                            <stop offset="100%" style="stop-color:#f5576c"/>
                        </linearGradient>
                    </defs>
                </svg>